<svg width="608" height="353" viewBox="0 0 608 353" fill="none" xmlns="http://www.w3.org/2000/svg">
<path d="M0 0V352.397C27.5143 348.042 55.0961 344.441 82.7229 341.47V211.269C106.833 210.785 130.988 210.425 155.165 210.155L186.728 208.977L155.183 223.67V335.112C182.9 333.199 210.65 331.871 238.412 331.049C238.423 228.295 238.423 125.553 238.423 22.8104C210.661 21.8651 182.922 20.3347 155.205 18.2078V140.891C131.022 140.396 106.861 139.8 82.7454 139.102V11.287C55.1073 8.12487 27.5143 4.35502 0 0Z" fill="#FF0003"/>
<path d="M279.689 23.7669V330.216C307.293 329.913 334.909 330.126 362.513 330.847C362.502 228.25 362.502 125.643 362.502 23.0355C334.909 23.8682 307.293 24.1158 279.689 23.7669Z" fill="#FF0003"/>
<path d="M458.853 86.7403C458.864 169.666 458.864 252.603 458.864 335.539L458.853 335.551C486.558 337.542 514.219 340.108 541.834 343.338V98.3946L502.469 84.0419L541.834 81.8452C563.936 80.2697 585.992 78.4917 608.004 76.5224V0C536.467 11.3321 464.446 18.6354 392.29 21.9101V89.2048C414.492 88.6084 436.684 87.7869 458.853 86.7403Z" fill="#FF0003"/>
</svg>
